# xmcd
#
# Track frame offsets:
#	150
#	17566
#	31820
#
# Disc length: 615 seconds
#
# Revision: 0
# Processed by: cddbd v1.4PL0 Copyright (c) Steve Scherf et al.
# Submitted via: dBpowerAMP V4.0
#
DISCID=15026503
DTITLE=Tyrone Davis - Singles
DYEAR=1900
DGENRE=Blues
TTITLE0=Dogg
TTITLE1=Come to Daddy
TTITLE2=Bangin the Headboard
EXTD=
EXTT0=
EXTT1=
EXTT2=
PLAYORDER=
